<?xml version="1.0" encoding="iso-8859-1"?>
<!-- Generator: Adobe Illustrator 26.0.0, SVG Export Plug-In . SVG Version: 6.00 Build 0)  -->
<svg version="1.1" id="Calque_1" xmlns="http://www.w3.org/2000/svg" xmlns:xlink="http://www.w3.org/1999/xlink" x="0px" y="0px"
	 viewBox="0 0 595.276 841.89" style="enable-background:new 0 0 595.276 841.89;" xml:space="preserve">
<g>
	
		<image style="overflow:visible;enable-background:new    ;" width="500" height="500" xlink:href="logo.png"  transform="matrix(0.75 0 0 0.75 110.138 274.565)">
	</image>
	<path style="fill:#F18314;" d="M314.917,437.13c0.281-3.642-0.173-6.913-1.412-10.379c-0.372-1.041-0.908-1.847-1.526-2.671
		c-0.003-0.01-0.004-0.019-0.007-0.029c-0.984-3.318-2.244-6.908-5.452-8.646c-1.447-0.784-3.182-0.705-4.632-0.051
		c-3.317-0.058-6.844,3.569-4.871,7.535c-0.787-0.156-1.603,0.914-0.908,1.701c0.593,0.672,1.095,1.411,1.547,2.182l0.663,1.773
		c0.009,0.024,0.032,0.043,0.062,0.06c0.549,1.499,1.098,2.999,1.647,4.498c0.02,0.056,0.125,0.087,0.25,0.106
		c0.042,0.128,0.083,0.258,0.125,0.386c-0.131,0.2-0.205,0.445-0.159,0.734c0.775,4.816,1.102,9.693,1.013,14.57
		c-0.006,0.355,0.147,0.602,0.365,0.761c0.107,0.304,0.23,0.602,0.386,0.881c-0.066,0.019-0.12,0.043-0.139,0.078
		c-0.834,1.582-1.476,3.245-1.921,4.976c-0.022,0.086,0.323,0.124,0.612,0.112c-0.065,0.25-0.127,0.501-0.193,0.75
		c-0.156,0.584-0.336,1.161-0.567,1.718c-0.748,0.677-1.534,1.318-2.284,1.974c-0.832,0.729,0.094,1.861,0.984,1.636
		c0.17,0.14,0.384,0.234,0.635,0.258c0.115,0.011,0.232-0.001,0.349,0c-0.018,0.38,0.103,0.768,0.468,0.961
		c0.39,0.206,0.894,0.171,1.212-0.156c0.214-0.221,0.401-0.463,0.595-0.7c0.323-0.2,0.65-0.391,0.974-0.59
		c0.698-0.43,1.388-0.906,1.943-1.513c0.353-0.386,0.41-1.038,0-1.414c-0.385-0.353-1.037-0.412-1.414,0
		c-0.145,0.158-0.297,0.308-0.459,0.449c-0.062,0.054-0.127,0.106-0.191,0.157c-0.03,0.023-0.09,0.068-0.112,0.083
		c-0.087,0.063-0.182,0.115-0.271,0.174c-0.007-0.004-0.011-0.01-0.018-0.014c-0.081-0.048-0.177-0.081-0.276-0.105
		c0.029-0.061,0.064-0.118,0.092-0.18c0.018-0.04-0.127-0.072-0.309-0.089c1.015-0.972,1.935-2.027,2.578-3.302
		c0.471-0.934,0.902-1.893,1.319-2.859c1.95,0.279,3.783-0.623,5.035-2.365c1.553-2.162,2.716-4.697,2.724-7.397
		c1.275-1.255,1.994-3.108,1.395-5.114C314.837,437.772,314.891,437.461,314.917,437.13z M302.566,454.796
		c-0.338,0.669-0.768,1.268-1.245,1.83c0.097-0.355,0.186-0.713,0.28-1.069c0.195,0.006,0.378-0.012,0.427-0.078
		c0.25-0.339,0.478-0.691,0.709-1.041C302.679,454.556,302.626,454.678,302.566,454.796z M303.374,442.67
		c0.016,0.172,0.01,0.343,0.008,0.515c-0.03,0.105-0.061,0.21-0.091,0.315c-0.032,0.053-0.074,0.123-0.121,0.199
		c-0.096-2.183-0.266-4.362-0.529-6.533c0.284-0.182,0.495-0.489,0.456-0.829c-0.001-0.005-0.002-0.01-0.002-0.014
		c0.467,1.064,0.938,2.126,1.421,3.183C303.764,440.353,303.309,441.443,303.374,442.67z"/>
	<path style="fill:#F18314;" d="M294.019,440.065c0.047-7.191-4.636-13.393-9.745-18.03c-0.626-0.569-1.294-0.935-1.969-1.142
		c-1.392-0.586-3.007-0.591-4.358,0.28c-2.209,1.424-3.292,4.478-1.794,6.841c1.49,2.349,2.361,4.142,3.101,6.271
		c0.391,1.123,1.152,2.116,2.112,2.794c-1.481,1.242-2.395,3.316-1.679,5.167c0.199,0.515,0.28,1.338,0.265,2.243
		c-0.34,0.044-0.648,0.255-0.748,0.699c-0.3,1.329-1.252,2.287-2.247,3.157c-1.16,1.015-2.265,1.965-3.178,3.219
		c-0.808,1.11-1.731,1.943-2.867,2.707c-1.13,0.76-2.287,1.489-3.272,2.437c-0.153,0.009-0.303,0.041-0.448,0.118
		c-0.099,0.053-0.201,0.097-0.302,0.144c-0.068-0.053-0.134-0.112-0.217-0.14c-0.119-0.063-0.248-0.091-0.385-0.086
		c-0.138-0.005-0.266,0.024-0.385,0.086c-0.124,0.04-0.231,0.109-0.322,0.207c-0.175,0.191-0.305,0.441-0.293,0.707l0.036,0.266
		c0.002,0.008,0.007,0.015,0.01,0.024c-0.071,0.322,0.036,0.676,0.267,0.907c0.038,0.038,0.084,0.066,0.127,0.097
		c-0.978,0.159-1.959,0.293-2.951,0.368c-0.852,0.064-1.271,1.225-0.739,1.734c-1.253,0.587-2.367,1.406-3.138,2.651
		c-0.217,0.35-0.144,0.741,0.059,1.061c-0.19,0.111-0.311,0.294-0.384,0.495c-0.127,0.076-0.257,0.144-0.391,0.206
		c-0.119,0.045-0.238,0.092-0.361,0.126c-0.13,0.031-0.243,0.091-0.34,0.179c-0.109,0.07-0.195,0.164-0.258,0.281
		c-0.073,0.115-0.113,0.239-0.119,0.372c-0.03,0.133-0.024,0.266,0.018,0.399c0.078,0.242,0.228,0.475,0.46,0.598
		c0.238,0.126,0.506,0.174,0.771,0.101c0.274-0.076,0.535-0.184,0.794-0.299c0.186-0.082,0.365-0.179,0.537-0.288
		c0.197-0.126,0.348-0.314,0.428-0.535c1.513-0.817,2.936-1.769,4.284-2.837c0.308-0.244,0.346-0.763,0.207-1.092
		c-0.033-0.078-0.08-0.15-0.132-0.218c0.583-0.165,1.183-0.299,1.764-0.428c0.124-0.028,0.238-0.087,0.338-0.166
		c0.96,0.047,1.92,0.068,2.883,0.048l-0.783,0.903c-0.596,0.687-0.043,2.041,0.973,1.671c0.612-0.223,1.149-0.529,1.661-0.876
		c-0.437,0.511-0.36,1.529,0.442,1.674c0.508,0.092,1.016,0.184,1.524,0.276c-0.21,0.617,0.138,1.448,0.908,1.359
		c0.522-0.061,1.044-0.122,1.566-0.183c1.014-0.118,1.209-1.415,0.591-1.852c0.676-0.267,0.812-1.091,0.349-1.631
		c-0.839-0.978-1.933-1.116-3.043-1.337c0.819-0.572,1.657-1.115,2.529-1.602c2.441-1.364,5.038-2.219,7.689-3.066
		c2.353-0.751,4.733-1.591,6.733-3.08c0.856-0.638,1.624-1.377,1.554-2.524c-0.032-0.527-0.156-1.068-0.306-1.609
		c0.068-0.166,0.109-0.347,0.075-0.558c-0.176-1.102-0.425-2.172-0.753-3.238c-0.206-0.669-0.883-0.839-1.385-0.61
		c0.017-0.227,0.037-0.446,0.052-0.678C292.022,444.508,294,442.922,294.019,440.065z M281.15,455.893
		c-2.139,0.702-4.218,1.568-6.178,2.681c-0.832,0.473-1.635,0.995-2.418,1.545c-0.154-0.275-0.424-0.469-0.814-0.439
		c-0.529,0.041-1.058,0.062-1.587,0.083c-0.016-0.009-0.029-0.023-0.046-0.032c-0.156-0.083-0.319-0.141-0.484-0.19
		c0.306-0.144,0.618-0.272,0.923-0.418c0.446-0.214,0.555-0.728,0.426-1.164c0.283-0.351,0.409-0.745,0.28-1.277
		c-0.016-0.064-0.041-0.127-0.073-0.187c0.379-0.253,0.76-0.504,1.134-0.764c1.286-0.894,2.274-1.894,3.194-3.158
		c0.962-1.321,2.345-2.313,3.517-3.455c-0.802,2.333-0.327,4.915,1.998,6.274c0.217,0.127,0.453,0.23,0.697,0.32
		C281.529,455.773,281.338,455.831,281.15,455.893z M287.948,453.385c0.199-0.461,0.381-0.918,0.545-1.373
		c0.196,0.311,0.553,0.511,0.921,0.497C288.981,452.864,288.422,453.153,287.948,453.385z"/>
	<path style="fill:#F18314;" d="M276.582,417.763c-0.357,0.098-0.574,0.343-0.749,0.626c-0.024-0.006-0.047-0.018-0.071-0.022
		c-0.816-0.164-1.5,0.268-2.017,0.86c-0.317,0.362-0.384,0.923-0.072,1.31c-0.004,0-0.008,0.003-0.011,0.003
		c-0.068-0.069-0.128-0.146-0.214-0.196c-0.661-0.387-1.379,0.022-1.731,0.612c-0.085,0.143-0.138,0.299-0.178,0.461
		c-0.425-0.131-0.947,0.035-1.158,0.433c-0.218,0.412-0.137,0.867,0.162,1.186c0.02,0.052,0.044,0.104,0.056,0.138
		c0.101,0.272,0.209,0.527,0.422,0.732c0.576,0.554,1.321,0.357,1.973,0.082c0.017-0.007,0.034-0.016,0.051-0.023
		c0.381,0.072,0.789,0.023,1.179-0.204c0.8-0.464,1.446-1.244,1.971-1.988c0.277-0.393,0.523-0.807,0.753-1.23
		c0.006-0.011,0.012-0.022,0.018-0.034c0.041-0.016,0.085-0.023,0.124-0.042c0.512-0.251,0.817-0.769,0.891-1.318
		C278.091,418.342,277.456,417.522,276.582,417.763z"/>
	<path style="fill:#F18314;" d="M261.783,419.503c-0.629-0.302-1.278-0.5-1.941-0.642c0.004-0.095-0.006-0.189-0.03-0.282
		c0.01-0.197-0.014-0.396-0.11-0.561c-0.048-0.083-0.115-0.138-0.179-0.199c0.146-0.588-0.205-1.339-0.938-1.308
		c-0.038,0.002-0.075,0.006-0.113,0.008c0.079-0.159,0.126-0.336,0.094-0.544c-0.071-0.473-0.476-0.885-0.982-0.867
		c-0.386,0.013-0.772,0.027-1.158,0.04c-0.077-0.179-0.208-0.327-0.396-0.414c-0.115-0.124-0.269-0.217-0.464-0.258
		c-0.428-0.09-0.825-0.094-1.25,0.019c-0.935,0.248-0.867,1.4-0.247,1.816c0.032,0.317,0.203,0.606,0.479,0.762
		c-0.549,0.192-1.063,0.464-1.496,0.875c-0.392,0.372-0.356,1.059,0.039,1.421c-0.042,0.13-0.063,0.269-0.04,0.425
		c0.073,0.482,0.475,0.873,0.982,0.867c0.791-0.009,1.568-0.11,2.332-0.268c0.1,0.014,0.201,0.024,0.301,0.037
		c0.244,0.264,0.602,0.359,0.99,0.293c-0.095,0.016,0.06-0.003,0.078-0.003c0.076-0.001,0.152,0,0.229,0.004
		c0.116,0.005,0.179,0.022,0.361,0.067c0.328,0.081,0.647,0.194,0.968,0.297c0.748,0.241,1.466,0.354,2.249,0.244
		C262.386,421.211,262.519,419.855,261.783,419.503z"/>
	<path style="fill:#F18314;" d="M260.249,447.679c-0.025-0.559-0.439-0.979-1-1c-0.142-0.005-0.284-0.014-0.425-0.029
		c-0.035-0.004-0.071-0.008-0.106-0.012c0.072,0.008,0.073,0.007,0.003-0.004c-0.07-0.013-0.14-0.026-0.209-0.04
		c-0.119-0.025-0.233-0.07-0.35-0.103c-0.284-0.123-0.575-0.23-0.871-0.32c-0.091-0.047-0.183-0.094-0.272-0.146
		c-0.138-0.081-0.272-0.168-0.403-0.26c-0.013-0.009-0.093-0.068-0.115-0.084c-0.009-0.009-0.141-0.12-0.143-0.122
		c-0.34-0.292-0.808-0.393-1.212-0.156c-0.151,0.088-0.261,0.222-0.345,0.37c-0.447-0.379-0.862-0.793-1.241-1.24
		c-0.147-0.174-0.361-0.248-0.582-0.269c-0.146-0.571-0.618-1.014-1.088-1.401c-1.297-1.068-2.612-2.038-3.59-3.432
		c-0.746-1.064-1.301-2.242-1.577-3.499c0.009-0.097,0.024-0.193,0.003-0.301c-0.071-0.375-0.143-0.75-0.214-1.125
		c-0.079-0.414-0.388-0.637-0.739-0.696c-0.046-0.314-0.093-0.61-0.107-0.859c-0.092-1.595-0.044-3.191,0.112-4.781
		c0.126-1.28-1.875-1.271-2,0c-0.087,0.879-0.127,1.76-0.142,2.642c-0.278-0.606-1.027-0.76-1.553-0.318
		c-0.125-0.331-0.267-0.657-0.435-0.978c-0.333-0.634-1.405-0.671-1.727,0c-1.571,3.275,2.321,5.789,4.124,7.979
		c1.125,1.366,1.889,2.865,2.712,4.419c0.519,0.979,1.171,1.881,1.846,2.765c-0.108,0.115-0.196,0.251-0.252,0.403
		c-0.266,0.709,0.218,1.387,0.876,1.64c0.441,0.17,0.902,0.159,1.349,0.058c0.046,0.004,0.088,0.012,0.134,0.015
		c0.275,0.018,0.534-0.118,0.723-0.324c0.027-0.014,0.057-0.023,0.084-0.037c0.229-0.122,0.469-0.26,0.688-0.422
		c0.667,0.775,1.447,1.462,2.303,2.03c0.093,0.316,0.324,0.574,0.672,0.696c0.386,0.135,0.789,0.25,1.198,0.316
		c0.374,0.162,0.759,0.301,1.151,0.377c0.889,0.172,1.682,0.056,2.401-0.516c0.254-0.203,0.317-0.586,0.255-0.901
		C260.225,447.906,260.254,447.794,260.249,447.679z"/>
	<path style="fill:#F18314;" d="M265.68,430.22c-1.136-0.466-2.428,0.066-3.265,0.871c-0.827,0.795-1.238,1.909-2.027,2.732
		c-1.45,1.512-3.505,2.28-4.863,3.905c-0.511,0.612-0.23,1.758,0.707,1.707c0.161-0.009,0.309-0.044,0.452-0.086
		c0.732,0.248,1.417-0.279,1.799-0.902c0.17-0.277,0.186-0.548,0.106-0.781c0.941-0.68,1.955-1.274,2.821-2.05
		c0.717-0.644,1.212-1.43,1.735-2.22c0.156-0.042,0.31-0.114,0.451-0.263c0.482-0.511,1.109-0.877,1.819-0.948
		C266.569,432.069,266.734,430.652,265.68,430.22z"/>
	<path style="fill:#F18314;" d="M243.113,452.986c-0.336-0.332-0.798-0.434-1.253-0.317c-0.115,0.03-0.227,0.075-0.339,0.115
		c-0.32-0.228-0.722-0.314-1.109-0.236c-0.759,0.153-1.246,0.962-1.06,1.706c-0.179,0.2-0.348,0.41-0.498,0.63
		c-0.334,0.489-0.675,1.134-0.457,1.735c0.122,0.336,0.341,0.6,0.698,0.698c0.254,0.07,0.503,0.029,0.722-0.085
		c0.01,0.02,0.008,0.041,0.02,0.061c0.121,0.207,0.359,0.405,0.598,0.46c0.256,0.058,0.543,0.046,0.771-0.101
		c0.205-0.132,0.42-0.346,0.46-0.598c0.005-0.032,0.017-0.061,0.025-0.091c0.064-0.117,0.133-0.232,0.208-0.344
		c0.138-0.204,0.245-0.422,0.325-0.657c0.077-0.225,0.123-0.465,0.162-0.706c0.465-0.22,0.856-0.571,1.009-1.083
		C243.513,453.774,243.413,453.283,243.113,452.986z"/>
	<path style="fill:#F18314;" d="M231.126,435.287c-0.033-0.309-0.144-0.585-0.372-0.77c0.011-0.216,0.017-0.433,0.035-0.649
		c0.017-0.213,0.038-0.426,0.062-0.638c0.007-0.067,0.019-0.141,0.025-0.212c0.138-0.18,0.235-0.394,0.235-0.611
		c0-0.578-0.459-0.955-1-1c-0.802-0.066-1.114,0.684-1.199,1.329c-0.068,0.518-0.121,1.038-0.153,1.56
		c-0.023,0.384-0.024,0.769-0.026,1.154c-0.238,0.298-0.476,0.596-0.71,0.897c-0.06-0.238-0.204-0.453-0.444-0.593
		c-0.437-0.255-1.134-0.13-1.368,0.359c-0.58,1.212-0.735,2.539-0.383,3.844c0.238,0.881,1.354,0.92,1.828,0.239
		c0.48-0.691,0.975-1.371,1.481-2.043c0.109,0.106,0.236,0.195,0.399,0.24c0.39,0.107,0.957-0.06,1.129-0.46
		C231.029,437.088,231.224,436.209,231.126,435.287z"/>
	<path style="fill:#F18314;" d="M232.925,418.395c-0.319-0.168-0.78-0.167-1.095,0.044c-0.06-0.185-0.161-0.357-0.326-0.484
		c-0.195-0.151-0.449-0.219-0.697-0.203c-0.025-0.047-0.048-0.095-0.08-0.138c0.001-0.205-0.056-0.406-0.199-0.591
		c-0.222-0.287-0.686-0.507-1.051-0.358c-0.218,0.089-0.435,0.177-0.653,0.266c-0.086-0.233-0.243-0.438-0.47-0.576
		c-0.375-0.227-0.858-0.209-1.236-0.001c-0.135,0.075-0.249,0.174-0.35,0.287c-0.071,0.084-0.137,0.171-0.198,0.262
		c-0.033,0.047-0.042,0.064-0.04,0.069c-0.274,0.322-0.403,0.756-0.146,1.154c0.129,0.199,0.352,0.369,0.599,0.453
		c0.171,0.46,0.591,0.766,1.097,0.728c-0.288,0.472-0.577,0.944-0.865,1.416c-0.534,0.874,0.514,1.843,1.368,1.368
		c0.132-0.073,0.25-0.164,0.376-0.245c0.095,0.463,0.464,0.82,0.961,0.829c0.022,0,0.039-0.009,0.06-0.01
		c0.054,0.337,0.283,0.643,0.6,0.776c0.416,0.176,1.046,0.046,1.249-0.409l1.454-3.269
		C233.496,419.286,233.438,418.666,232.925,418.395z"/>
	<path style="fill:#F18314;" d="M248.69,405.652c-0.428-0.386-1.074-0.409-1.657-0.428c-0.187-0.265-0.504-0.464-0.824-0.46
		c-0.147-0.365-0.492-0.696-0.907-0.643c-0.111,0.014-0.223,0.012-0.334,0.023c0.172-0.281,0.209-0.663,0.087-0.941
		c-0.141-0.32-0.413-0.516-0.729-0.578c-0.083-0.473-0.482-0.809-0.966-0.835c-0.466-0.025-0.928-0.008-1.391,0.051
		c-0.536,0.068-1,0.411-1,1c0,0.167,0.05,0.314,0.122,0.45c-0.145,0.261-0.238,0.545-0.265,0.842
		c-0.003,0.039,0.006,0.077,0.005,0.116c-0.347,0.314-0.678,0.691-0.751,1.14c-0.124,0.769,0.466,1.307,1.175,1.411
		c0.669,0.097,1.341,0.162,2.014,0.214c0.041,0.098,0.096,0.183,0.163,0.261c-0.274,0.288-0.399,0.678-0.225,1.075
		c0.117,0.266,0.344,0.456,0.608,0.548c0.174,0.244,0.448,0.417,0.788,0.419c1.119,0.008,2.356-0.162,3.356-0.696
		C248.998,408.067,249.727,406.59,248.69,405.652z"/>
	<path style="fill:#F18314;" d="M281.381,407.765c-0.877-0.538-1.754-1.075-2.63-1.613c-0.376-0.23-0.752-0.461-1.127-0.691
		c-0.171-0.105-1.142-0.583-1.182-0.634c-0.015-0.02-0.032-0.038-0.047-0.058c-0.047-0.073-0.094-0.144-0.164-0.201
		c-0.006-0.007-0.012-0.014-0.018-0.022c1.536-0.28,2.686-0.912,2.165-2.284c-0.486-1.279-2.418-1.455-3.558-1.623
		c-0.816-0.12-1.623-0.171-2.43-0.172c0.047-0.188,0.062-0.397,0.026-0.637c-0.208-1.381-1.685-1.638-3.037-1.536
		c-0.054-0.421-0.371-0.797-0.954-0.833c-1.103-0.069-2.185-0.004-3.271,0.157c-0.774-0.056-1.551-0.056-2.331,0.026
		c-1.134,0.119-2.457,0.155-2.903,1.355c-0.25,0.674,0.381,1.197,0.964,1.266c1.133,0.133,2.268,0.224,3.405,0.293
		c-0.014,0.086-0.027,0.173-0.021,0.267c-0.244,0.08-0.488,0.17-0.729,0.27c-1.301,0.221-2.597,0.468-3.884,0.772
		c-0.389,0.092-0.616,0.426-0.684,0.79c-0.267-0.004-0.534,0.001-0.801-0.005c-1.144-0.029-1.335,1.648-0.266,1.964
		c1.966,0.581,3.937,0.645,5.944,0.244c0.223-0.045,0.372-0.153,0.489-0.281c0.034-0.002,0.069-0.002,0.103-0.003
		c0.869-0.043,1.262-1.194,0.738-1.719c0.137-0.029,0.274-0.058,0.41-0.087c0.269-0.057,0.44-0.191,0.556-0.353
		c0.215-0.028,0.432-0.05,0.654-0.06c0.5-0.023,0.826-0.384,0.934-0.791c0.085,0.044,0.175,0.085,0.29,0.105
		c0.245,0.044,0.561,0.083,0.91,0.105c0.079,0.363,0.312,0.704,0.675,0.819c0.581,0.184,1.36,0.154,1.886-0.123
		c0.016-0.001,0.031-0.003,0.046-0.004c0.007,0.042,0.029,0.082,0.044,0.123c-0.237,0.03-0.457,0.07-0.643,0.118
		c-1.12,0.29-0.84,1.915,0.266,1.964c0.196,0.009,0.504,0.026,0.874,0.043c0.578,0.506,1.339,1.01,2.136,0.931
		c0.098-0.01,0.192-0.031,0.28-0.061c0.068,0.085,0.15,0.16,0.216,0.247c0.428,0.763,1.748,1.259,2.467,1.699
		c1.065,0.653,2.129,1.305,3.194,1.958C281.472,410.167,282.478,408.437,281.381,407.765z"/>
	<path style="fill:#F18314;" d="M291.584,403.654c-0.258-0.025-0.516-0.05-0.775-0.075c-0.419-0.04-0.729,0.247-0.888,0.596
		c-0.009-0.001-0.018-0.003-0.027-0.004c-0.388-0.024-0.757,0.084-1.045,0.359c-0.027,0.026-0.038,0.059-0.062,0.086
		c-0.284,0.136-0.528,0.359-0.688,0.638c-0.145,0.254-0.201,0.525-0.234,0.811c-0.023,0.195-0.006,0.408-0.061,0.57
		c-0.015,0.022-0.069,0.127-0.079,0.143c-0.054,0.086-0.088,0.124-0.126,0.168c-0.139,0.166-0.288,0.325-0.438,0.48
		c-0.042,0.043-0.09,0.079-0.132,0.122c-0.278-0.023-0.557,0.064-0.798,0.264c-0.13,0.108-0.228,0.239-0.307,0.38
		c-0.001,0-0.001,0.001-0.001,0.002c-0.043,0.041-0.087,0.08-0.133,0.118c-0.006,0.004-0.003,0.001-0.015,0.009
		c-0.232,0.153-0.47,0.294-0.709,0.437c-0.559,0.334-1.056,0.715-1.417,1.265c-0.242,0.368-0.145,0.91,0.156,1.212
		c0.332,0.332,0.806,0.348,1.212,0.156c0.462-0.219,0.906-0.475,1.337-0.751c0.113,0.114,0.236,0.213,0.373,0.285
		c0.566,0.299,1.293,0.173,1.889,0.041c0.556-0.123,1.097-0.351,1.59-0.635c0.468-0.27,0.63-0.904,0.359-1.368
		c-0.275-0.47-0.899-0.629-1.368-0.359c-0.212,0.122-0.452,0.232-0.694,0.317c0.367-0.36,0.727-0.751,0.982-1.183
		c0.146-0.247,0.223-0.505,0.277-0.772c0.451-0.116,0.742-0.437,0.86-0.828c0.007-0.002,0.019-0.004,0.026-0.006
		c0.308-0.094,0.542-0.277,0.727-0.499c0.07,0.007,0.14,0.013,0.209,0.02c0.538,0.052,1-0.497,1-1
		C292.584,404.07,292.124,403.706,291.584,403.654z"/>
	<path style="fill:#81CC2A;" d="M353.496,402.571c-0.558-0.833-1.383-0.521-2.14-0.269c-0.79,0.263-0.866,1.034-0.501,1.522
		c-0.039,0.028-0.075,0.071-0.112,0.111c-0.378-0.205-0.859-0.212-1.164,0.157c-0.68,0.823-1.409,1.595-2.192,2.321
		c-0.257,0.239-0.308,0.55-0.248,0.846c-0.285,0.204-0.566,0.411-0.841,0.626c-0.354-0.311-0.874-0.394-1.27,0.071
		c-0.269,0.316-0.527,0.642-0.789,0.964c-0.261-0.145-0.566-0.158-0.849,0.015c-0.388-0.403-0.984-0.566-1.596-0.542
		c-0.18-0.795-0.922-1.32-1.709-1.001c-0.166-0.204-0.405-0.343-0.724-0.32c-0.373,0.026-0.818,0.062-1.277,0.132
		c-0.207,0.001-0.413-0.017-0.618-0.04c0.075-0.533-0.247-1.112-0.911-1.142c0.1-0.03,0.197-0.061,0.29-0.091
		c1.218-0.393,0.721-2.263-0.532-1.929c-0.163,0.052-0.328,0.096-0.494,0.138c-0.025-0.036-0.045-0.074-0.073-0.107
		c0.096-0.556-0.203-1.142-0.93-1.137c-0.337,0.002-0.674,0.004-1.011,0.007c0.003-0.291-0.103-0.594-0.273-0.804
		c-0.119-0.146-0.258-0.265-0.406-0.369c-0.005-0.068-0.01-0.136-0.03-0.198c-0.256-0.803-0.946-1.07-1.564-0.934
		c-0.115-0.489-0.547-0.887-1.187-0.7c-0.112,0.037-0.226,0.066-0.342,0.088c-0.008-0.001-0.009,0-0.016,0
		c-0.759-0.812-2.274,0.137-1.605,1.161c0.248,0.379,0.57,0.602,0.93,0.72c-0.252,0.174-0.48,0.37-0.625,0.625
		c-0.408,0.717-0.087,1.663,0.589,2.087c0.735,0.461,1.666,0.342,2.495,0.337c0.362-0.002,0.724-0.005,1.086-0.007
		c-0.078,0.355,0.017,0.749,0.241,1.019c-0.123,0.245-0.207,0.506-0.191,0.805c0.047,0.85,0.659,1.251,1.413,1.402
		c0.056,0.053,0.098,0.12,0.168,0.158c0.289,0.153,0.584,0.28,0.882,0.394c-0.112,0.261-0.169,0.562-0.138,0.919
		c0.129,1.504,1.894,2.265,3.199,1.759c0.245,0.955,0.886,1.724,2.035,1.493c0.069-0.014,0.156-0.049,0.232-0.071
		c-0.246,0.687-0.646,1.279-1.11,1.832c-0.363-0.389-0.952-0.537-1.36-0.02c-1.283,1.626-2.566,3.251-3.849,4.877
		c-0.202,0.256-0.239,0.584-0.18,0.891c-0.146,0.068-0.284,0.169-0.399,0.319c-0.436,0.567-0.873,1.134-1.309,1.701
		c-0.128-0.096-0.273-0.173-0.433-0.209c-0.342-0.638-1.285-0.917-1.687-0.089c-0.507,1.046-1.014,2.092-1.521,3.137
		c-0.038,0.079-0.044,0.153-0.063,0.229c-0.088-0.217-0.193-0.433-0.33-0.645c-0.335-0.521-1.198-0.626-1.611-0.189
		c-0.373,0.055-0.718,0.297-0.816,0.705c-0.636,2.631-0.67,5.298-0.119,7.947c0.188,0.906,1.23,0.875,1.708,0.324
		c-0.022,0.076-0.048,0.15-0.07,0.226c-0.207,0.729,0.499,1.441,1.23,1.23c0.809-0.233,1.245-0.936,1.607-1.666
		c0.049,0.004,0.097,0.016,0.146,0.013c-0.163,0.455-0.286,0.923-0.348,1.424c-0.112,0.9,1.145,1.265,1.707,0.707
		c0.321-0.318,0.644-0.635,0.97-0.947c-0.066,0.174-0.132,0.348-0.198,0.521c-0.364,0.961,1.01,1.651,1.671,0.973
		c0.135-0.138,0.27-0.277,0.405-0.415c-0.224,0.548-0.449,1.096-0.673,1.643c-0.172,0.419,0.12,0.906,0.46,1.129
		c0.717,0.472,1.378,0.062,1.968-0.38c-0.035,0.078-0.071,0.156-0.106,0.235c-0.324,0.718,0.14,1.386,0.75,1.469
		c-0.001,0.013-0.007,0.023-0.008,0.037c-0.036,0.5,0.124,0.977,0.544,1.276c0.807,0.575,2.085,0.027,2.031-1.029
		c-0.014-0.268-0.125-0.468-0.272-0.624c0.044-0.105,0.097-0.205,0.13-0.315c0.066-0.223,0.041-0.417-0.02-0.589
		c0.186-0.384,0.355-0.776,0.511-1.176c0.207-0.53-0.126-0.965-0.573-1.146c0.172-0.554,0.185-1.114-0.307-1.581
		c-0.291-0.276-0.858-0.424-1.212-0.156c-0.281,0.212-0.562,0.424-0.843,0.637c0.043-0.104,0.085-0.208,0.128-0.312
		c0.399-0.975,0.907-1.948,0.904-3.026c-0.002-0.857-1.098-1.332-1.707-0.707c-0.111,0.114-0.223,0.229-0.334,0.343
		c-0.057-0.659-0.917-1.145-1.513-0.768c-0.271,0.171-0.526,0.361-0.784,0.548c0.156-0.39,0.285-0.789,0.352-1.207
		c0.152-0.939-0.753-1.545-1.524-1.064c0.278-0.862-0.754-1.472-1.432-1.138c-0.137-0.176-0.315-0.322-0.517-0.378
		c-0.124-0.034-0.242-0.035-0.355-0.024c0.066-0.171,0.124-0.346,0.191-0.516c0.412,0.183,0.959,0.1,1.308-0.354
		c0.565-0.734,1.13-1.468,1.695-2.203c0.113-0.049,0.22-0.126,0.314-0.238c1.087-1.296,2.174-2.591,3.261-3.887
		c0.284-0.011,0.56-0.145,0.736-0.492c0.728-1.437,1.942-2.478,3.007-3.634c-0.093,0.586,0.303,1.109,0.951,1.165
		c0.29,0.025,0.576,0.021,0.859,0.006c-0.019,0.025-0.034,0.052-0.053,0.076c-0.301,0.395-0.096,1.018,0.258,1.29
		c0.425,0.328,0.914,0.234,1.313-0.078c0.143-0.112,0.273-0.237,0.414-0.351c0.171,0.235,0.433,0.396,0.766,0.367
		c0.001,0,0.002,0,0.003,0c0.095,0.563,0.691,1.092,1.261,0.857c0.172-0.071,0.337-0.15,0.502-0.228
		c0.337,0.203,0.767,0.213,1.118-0.181c0.364-0.409,0.729-0.818,1.093-1.226c0.244-0.274,0.303-0.568,0.258-0.836
		c0.611-1.194,1.043-2.477,1.451-3.776c0.297-0.945,0.947-2.223,0.77-3.223c-0.07-0.396-0.278-0.687-0.549-0.874
		c0.115-1.11,0.59-2.175,0.728-3.292c0.008-0.063,0.005-0.125,0.009-0.188c0.187-0.208,0.375-0.415,0.552-0.629
		c0.133-0.16,0.242-0.337,0.336-0.519C353.583,404.07,353.975,403.287,353.496,402.571z M327.84,432.74
		c-0.094-0.451-0.151-0.903-0.204-1.355c0.195,0.111,0.417,0.135,0.632,0.106c-0.149,0.46-0.288,0.922-0.427,1.385
		C327.837,432.829,327.851,432.789,327.84,432.74z M349.547,411.191c-0.114,0.373-0.228,0.746-0.344,1.119
		c-0.19,0.609-0.381,1.219-0.591,1.822c-0.215,0.616-0.457,1.229-0.751,1.813c-0.063,0.008-0.125,0.005-0.191,0.029
		c-0.124,0.045-0.251,0.073-0.376,0.114c0.061-0.11,0.122-0.22,0.184-0.33c0.355-0.638-0.032-1.257-0.596-1.426
		c-0.007-0.005-0.017-0.006-0.025-0.011c0.041-0.078,0.091-0.151,0.132-0.23c0.487-0.946-0.664-1.97-1.484-1.273
		c1.203-1.363,2.433-2.708,3.314-4.309c0.132-0.043,0.264-0.114,0.388-0.226c0.056-0.05,0.11-0.101,0.166-0.151
		c-0.116,0.569-0.178,1.147-0.121,1.73c0.034,0.356,0.214,0.632,0.456,0.801C349.654,410.839,349.601,411.015,349.547,411.191z"/>
	<path style="fill:#81CC2A;" d="M331.813,451.093c-0.072,0.136-0.154,0.265-0.23,0.399c-0.505-0.28-1.277-0.182-1.534,0.529
		c-0.369,1.023-0.779,2.027-1.222,3.016c-0.029,0.019-0.057,0.033-0.086,0.055c0.044-0.069,0.092-0.133,0.135-0.202
		c0.466-0.74-0.138-1.39-0.808-1.438c0.011-0.013,0.023-0.026,0.034-0.039c0.508-0.614,0.14-1.573-0.508-1.722
		c0.554-0.787-0.59-1.954-1.373-1.357c-0.175,0.133-0.35,0.267-0.525,0.4c-0.321-0.485-1.082-0.726-1.585-0.232
		c-0.117,0.115-0.233,0.229-0.35,0.344c-0.045-0.023-0.088-0.048-0.136-0.066c0.012-0.585-0.603-1.103-1.178-1.029
		c-0.255-0.136-0.569-0.149-0.896,0.064c-0.397,0.258-0.774,0.542-1.142,0.838c-0.144,0.047-0.285,0.124-0.414,0.269
		c-0.093,0.105-0.187,0.211-0.28,0.316c-0.483,0.545-0.262,1.195,0.186,1.507c-0.161,0.242-0.333,0.475-0.486,0.722
		c-0.351,0.566-0.092,1.062,0.344,1.298c-0.054,0.075-0.107,0.149-0.161,0.224c-0.675,0.942,0.782,1.987,1.571,1.212
		c0.357-0.351,0.713-0.701,1.07-1.052c0.292,0.18,0.65,0.221,0.961-0.017c0.249-0.189,0.497-0.379,0.746-0.568
		c0.01,0.042,0.025,0.081,0.039,0.121c-0.11,0.118-0.214,0.241-0.32,0.362c-0.449,0.392-0.895,0.787-1.366,1.156
		c-0.336,0.263-0.37,0.652-0.237,0.996c-0.048,0.076-0.103,0.145-0.149,0.221c-0.56,0.925,0.515,1.756,1.368,1.368
		c0.078-0.035,0.149-0.083,0.226-0.12c-0.311,0.444-0.621,0.889-0.932,1.333c-0.118,0.169-0.145,0.345-0.136,0.518
		c-1.483,1.897-2.969,3.794-4.172,5.886c-0.132,0.23-0.138,0.487-0.072,0.726c-0.888,0.593-1.809,1.134-2.762,1.612
		c-0.19-0.081-0.399-0.1-0.607-0.015c-0.614,0.253-1.143,0.572-1.586,1.074c-0.163,0.185-0.231,0.426-0.234,0.669
		c-0.465,0.394-0.972,0.737-1.51,1.033c0.141-0.125,0.279-0.253,0.425-0.373c0.895-0.735-0.252-2.121-1.212-1.571
		c-0.09,0.051-0.179,0.103-0.269,0.154c-0.16-0.011-0.327,0.005-0.505,0.078c0.105-0.075,0.205-0.156,0.313-0.227
		c0.225-0.149,0.357-0.348,0.422-0.557c1.092-0.642,0.104-2.305-1.026-1.713c-0.139,0.073-0.282,0.128-0.422,0.196
		c-0.09-0.136-0.213-0.249-0.361-0.329c-0.033-0.124-0.095-0.239-0.17-0.347c-0.122-0.59-0.868-1.102-1.52-0.773
		c-0.438,0.221-0.876,0.443-1.314,0.664c-0.59,0.298-0.606,0.895-0.331,1.33c-0.352,0.572,0.126,1.391,0.779,1.48
		c0.035,0.211,0.128,0.406,0.268,0.557c-0.285,0.301-0.56,0.614-0.82,0.941c-0.464,0.584-0.256,1.818,0.707,1.707
		c0.15-0.017,0.294-0.046,0.442-0.067c0.102,0.322,0.34,0.595,0.661,0.689c-0.075,0.252-0.125,0.514-0.116,0.799
		c0.021,0.701,0.619,1.072,1.266,0.964c2.599-0.432,5.227-0.991,7.246-2.802c0.578-0.519,0.306-1.199-0.21-1.5
		c1.441-0.677,2.82-1.468,4.126-2.395c0.416-0.295,0.503-0.748,0.394-1.139c0.47-0.381,0.927-0.774,1.365-1.184
		c0.212-0.014,0.423-0.094,0.599-0.288c1.6-1.758,3.144-3.564,4.666-5.388c0.067,0.116,0.15,0.223,0.258,0.306
		c0.144,0.111,0.293,0.173,0.473,0.197c0.001,0,0.002,0,0.003,0c0.385,0.243,0.896,0.209,1.23-0.121
		c0.201-0.198,0.378-0.427,0.526-0.667c0.125-0.202,0.148-0.449,0.105-0.684c0.014-0.061,0.041-0.12,0.052-0.182
		c0.028-0.164,0.035-0.335,0.002-0.499c0.148-0.273,0.277-0.555,0.329-0.875c0.024-0.151,0.028-0.293,0.008-0.433
		c0.038-0.077,0.081-0.153,0.118-0.23c0.16-0.25,0.326-0.498,0.498-0.741c0.507-0.455,0.979-0.937,1.395-1.502
		c0.657-0.893,1.152-1.887,1.642-2.877C334.107,450.957,332.416,449.946,331.813,451.093z"/>
	<path style="fill:#81CC2A;" d="M291.146,478.015c-0.843,0.051-1.686,0.061-2.528,0.053c0.009-0.277-0.089-0.541-0.286-0.725
		c0.017-0.518-0.347-1.081-0.971-1.124c-0.445-0.031-0.89-0.061-1.335-0.092c0.062-0.498-0.201-1.004-0.794-1.062
		c-0.164-0.168-0.392-0.286-0.678-0.307c-1.884-0.14-3.766-0.129-5.648,0.032c-0.415,0.035-0.682,0.256-0.83,0.532
		c-0.982,0.022-1.964,0.053-2.947,0.058c-1.299,0.007-1.273,1.913,0,2c0.041,0.003,0.081,0.006,0.122,0.008
		c-0.054,0.006-0.108,0.01-0.162,0.017c-0.032,0-0.064,0.001-0.096,0.001c0,0.003,0.001,0.006,0.001,0.008
		c-0.089,0.011-0.177,0.015-0.267,0.027c-1.134,0.159-0.833,1.967,0.266,1.964c0.151,0,0.302-0.005,0.453-0.006
		c0.042,0.339,0.249,0.637,0.695,0.72c0.902,0.167,1.661,0.066,2.501-0.294c0.142-0.061,0.244-0.142,0.325-0.232
		c0.841-0.111,1.697-0.174,2.522-0.274c0.231-0.005,0.462-0.018,0.693-0.024c0.113,0.098,0.25,0.18,0.445,0.214
		c2.817,0.495,5.663,0.678,8.519,0.506C292.424,479.938,292.433,477.938,291.146,478.015z"/>
</g>
</svg>
